<?xml version="1.0" encoding="UTF-8" standalone="no"?>
<!-- Created with Inkscape (http://www.inkscape.org/) -->

<svg
   xmlns:dc="http://purl.org/dc/elements/1.1/"
   xmlns:cc="http://creativecommons.org/ns#"
   xmlns:rdf="http://www.w3.org/1999/02/22-rdf-syntax-ns#"
   xmlns:svg="http://www.w3.org/2000/svg"
   xmlns="http://www.w3.org/2000/svg"
   xmlns:xlink="http://www.w3.org/1999/xlink"
   version="1.1"
   width="512"
   height="512"
   id="svg3725">
  <defs
     id="defs3727">
    <g
       id="mine1">
      <circle
         cx="32"
         cy="32"
         r="30"
         id="circle3757"
         style="stroke:#000000;stroke-width:2" />
      <circle
         cx="32"
         cy="32"
         r="20"
         id="circle3764"
         style="fill:#000000;stroke:#000000;stroke-width:2" />
      <circle
         cx="32"
         cy="32"
         r="10"
         id="circle3769"
         style="fill:#ff0000;stroke:#000000;stroke-width:2" />
      <line
         style="fill-opacity:0;stroke:#808080;stroke-width:2"
         y2="32"
         x2="32"
         y1="2.5"
         x1="32"
         id="line3774" />
      <line
         transform="matrix(-0.5,0.8660254,-0.8660254,-0.5,75.712813,20.287187)"
         id="line3779"
         x1="32"
         y1="2.5"
         x2="32"
         y2="32"
         style="fill-opacity:0;stroke:#808080;stroke-width:2" />
      <line
         transform="matrix(-0.5,-0.8660254,0.8660254,-0.5,20.287187,75.712813)"
         style="fill-opacity:0;stroke:#808080;stroke-width:2"
         y2="32"
         x2="32"
         y1="2.5"
         x1="32"
         id="line3784" />
      <circle
         cx="32"
         cy="32"
         r="30"
         id="circle3789"
         style="fill-opacity:0;stroke:#000000;stroke-width:2" />
    </g>
    <use
       transform="matrix(0.96592583,0.25881905,-0.25881905,0.96592583,9.372583,-7.1918359)"
       id="mine2"
       x="0"
       y="0"
       width="64"
       height="64"
       xlink:href="#mine1" />
    <use
       transform="matrix(0.8660254,0.5,-0.5,0.8660254,20.287187,-11.712813)"
       id="mine3"
       x="0"
       y="0"
       width="64"
       height="64"
       xlink:href="#mine1" />
    <use
       transform="matrix(0.70710678,0.70710678,-0.70710678,0.70710678,32,-13.254834)"
       id="mine4"
       x="0"
       y="0"
       width="64"
       height="64"
       xlink:href="#mine1" />
    <use
       transform="matrix(0.5,0.8660254,-0.8660254,0.5,43.712813,-11.712813)"
       id="mine5"
       x="0"
       y="0"
       width="64"
       height="64"
       xlink:href="#mine1" />
    <use
       transform="matrix(0.25881905,0.96592583,-0.96592583,0.25881905,54.627417,-7.1918359)"
       id="mine6"
       x="0"
       y="0"
       width="64"
       height="64"
       xlink:href="#mine1" />
    <use
       transform="matrix(0,1,-1,0,64,0)"
       id="mine7"
       x="0"
       y="0"
       width="64"
       height="64"
       xlink:href="#mine1" />
    <use
       transform="matrix(-0.25881905,0.96592583,-0.96592583,-0.25881905,71.191836,9.372583)"
       id="mine8"
       x="0"
       y="0"
       width="64"
       height="64"
       xlink:href="#mine1" />
  </defs>
  <metadata
     id="metadata3730">
    <rdf:RDF>
      <cc:Work
         rdf:about="">
        <dc:format>image/svg+xml</dc:format>
        <dc:type
           rdf:resource="http://purl.org/dc/dcmitype/StillImage" />
        <dc:title></dc:title>
      </cc:Work>
    </rdf:RDF>
  </metadata>
  <g
     id="layer1">
    <use
       id="use3762"
       style="fill:#6666ff"
       x="0"
       y="0"
       width="64"
       height="64"
       xlink:href="#mine1" />
    <use
       id="use3835"
       style="fill:#ff3333"
       x="0"
       y="64"
       width="64"
       height="64"
       xlink:href="#mine1" />
    <use
       id="use3851"
       style="fill:#b300b3"
       x="0"
       y="128"
       width="64"
       height="64"
       xlink:href="#mine1" />
    <use
       id="use3853"
       style="fill:#ffff33"
       x="0"
       y="192"
       width="64"
       height="64"
       xlink:href="#mine1" />
    <use
       id="use3855"
       style="fill:#ffc0cb"
       x="0"
       y="256"
       width="64"
       height="64"
       xlink:href="#mine1" />
    <use
       id="use3857"
       style="fill:#ffb733"
       x="0"
       y="320"
       width="64"
       height="64"
       xlink:href="#mine1" />
    <use
       id="use3859"
       style="fill:#33ffff"
       x="0"
       y="384"
       width="64"
       height="64"
       xlink:href="#mine1" />
    <use
       id="use3861"
       style="fill:#00e600"
       x="0"
       y="448"
       width="64"
       height="64"
       xlink:href="#mine1" />
    <use
       id="use3798"
       style="fill:#6666ff"
       x="64"
       y="0"
       width="64"
       height="64"
       xlink:href="#mine2" />
    <use
       id="use3837"
       style="fill:#ff3333"
       x="64"
       y="64"
       width="64"
       height="64"
       xlink:href="#mine2" />
    <use
       id="use3863"
       style="fill:#b300b3"
       x="64"
       y="128"
       width="64"
       height="64"
       xlink:href="#mine2" />
    <use
       id="use3865"
       style="fill:#ffff33"
       x="64"
       y="192"
       width="64"
       height="64"
       xlink:href="#mine2" />
    <use
       id="use3867"
       style="fill:#ffc0bb"
       x="64"
       y="256"
       width="64"
       height="64"
       xlink:href="#mine2" />
    <use
       id="use3869"
       style="fill:#ffb733"
       x="64"
       y="320"
       width="64"
       height="64"
       xlink:href="#mine2" />
    <use
       id="use3871"
       style="fill:#33ffff"
       x="64"
       y="384"
       width="64"
       height="64"
       xlink:href="#mine2" />
    <use
       id="use3873"
       style="fill:#00e600"
       x="64"
       y="448"
       width="64"
       height="64"
       xlink:href="#mine2" />
    <use
       id="use3811"
       style="fill:#6666ff"
       x="128"
       y="0"
       width="64"
       height="64"
       xlink:href="#mine3" />
    <use
       id="use3839"
       style="fill:#ff3333"
       x="128"
       y="64"
       width="64"
       height="64"
       xlink:href="#mine3" />
    <use
       id="use3875"
       style="fill:#b300b3"
       x="128"
       y="128"
       width="64"
       height="64"
       xlink:href="#mine3" />
    <use
       id="use3877"
       style="fill:#ffff33"
       x="128"
       y="192"
       width="64"
       height="64"
       xlink:href="#mine3" />
    <use
       id="use3879"
       style="fill:#ffc0bb"
       x="128"
       y="256"
       width="64"
       height="64"
       xlink:href="#mine3" />
    <use
       id="use3881"
       style="fill:#ffb733"
       x="128"
       y="320"
       width="64"
       height="64"
       xlink:href="#mine3" />
    <use
       id="use3883"
       style="fill:#33ffff"
       x="128"
       y="384"
       width="64"
       height="64"
       xlink:href="#mine3" />
    <use
       id="use3885"
       style="fill:#00e600"
       x="128"
       y="448"
       width="64"
       height="64"
       xlink:href="#mine3" />
    <use
       id="use3815"
       style="fill:#6666ff"
       x="192"
       y="0"
       width="64"
       height="64"
       xlink:href="#mine4" />
    <use
       id="use3841"
       style="fill:#ff3333"
       x="192"
       y="64"
       width="64"
       height="64"
       xlink:href="#mine4" />
    <use
       id="use3906"
       style="fill:#b300b3"
       x="192"
       y="128"
       width="64"
       height="64"
       xlink:href="#mine4" />
    <use
       id="use3908"
       style="fill:#ffff33"
       x="192"
       y="192"
       width="64"
       height="64"
       xlink:href="#mine4" />
    <use
       id="use3910"
       style="fill:#ffc0bb"
       x="192"
       y="256"
       width="64"
       height="64"
       xlink:href="#mine4" />
    <use
       id="use3912"
       style="fill:#ffb733"
       x="192"
       y="320"
       width="64"
       height="64"
       xlink:href="#mine4" />
    <use
       id="use3914"
       style="fill:#33ffff"
       x="192"
       y="384"
       width="64"
       height="64"
       xlink:href="#mine4" />
    <use
       id="use3916"
       style="fill:#00e600"
       x="192"
       y="448"
       width="64"
       height="64"
       xlink:href="#mine4" />
    <use
       id="use3819"
       style="fill:#6666ff"
       x="256"
       y="0"
       width="64"
       height="64"
       xlink:href="#mine5" />
    <use
       id="use3843"
       style="fill:#ff3333"
       x="256"
       y="64"
       width="64"
       height="64"
       xlink:href="#mine5" />
    <use
       id="use3918"
       style="fill:#b300b3"
       x="256"
       y="128"
       width="64"
       height="64"
       xlink:href="#mine5" />
    <use
       id="use3920"
       style="fill:#ffff33"
       x="256"
       y="192"
       width="64"
       height="64"
       xlink:href="#mine5" />
    <use
       id="use3922"
       style="fill:#ffc0bb"
       x="256"
       y="256"
       width="64"
       height="64"
       xlink:href="#mine5" />
    <use
       id="use3924"
       style="fill:#ffb733"
       x="256"
       y="320"
       width="64"
       height="64"
       xlink:href="#mine5" />
    <use
       id="use3926"
       style="fill:#33ffff"
       x="256"
       y="384"
       width="64"
       height="64"
       xlink:href="#mine5" />
    <use
       id="use3928"
       style="fill:#00e600"
       x="256"
       y="448"
       width="64"
       height="64"
       xlink:href="#mine5" />
    <use
       id="use3823"
       style="fill:#6666ff"
       x="320"
       y="0"
       width="64"
       height="64"
       xlink:href="#mine6" />
    <use
       id="use3845"
       style="fill:#ff3333"
       x="320"
       y="64"
       width="64"
       height="64"
       xlink:href="#mine6" />
    <use
       id="use3930"
       style="fill:#b300b3"
       x="320"
       y="128"
       width="64"
       height="64"
       xlink:href="#mine6" />
    <use
       id="use3932"
       style="fill:#ffff33"
       x="320"
       y="192"
       width="64"
       height="64"
       xlink:href="#mine6" />
    <use
       id="use3934"
       style="fill:#ffc0bb"
       x="320"
       y="256"
       width="64"
       height="64"
       xlink:href="#mine6" />
    <use
       id="use3936"
       style="fill:#ffb733"
       x="320"
       y="320"
       width="64"
       height="64"
       xlink:href="#mine6" />
    <use
       id="use3938"
       style="fill:#33ffff"
       x="320"
       y="384"
       width="64"
       height="64"
       xlink:href="#mine6" />
    <use
       id="use3940"
       style="fill:#00e600"
       x="320"
       y="448"
       width="64"
       height="64"
       xlink:href="#mine6" />
    <use
       id="use3827"
       style="fill:#6666ff"
       x="384"
       y="0"
       width="64"
       height="64"
       xlink:href="#mine7" />
    <use
       id="use3847"
       style="fill:#ff3333"
       x="384"
       y="64"
       width="64"
       height="64"
       xlink:href="#mine7" />
    <use
       id="use3942"
       style="fill:#b300b3"
       x="384"
       y="128"
       width="64"
       height="64"
       xlink:href="#mine7" />
    <use
       id="use3944"
       style="fill:#ffff33"
       x="384"
       y="192"
       width="64"
       height="64"
       xlink:href="#mine7" />
    <use
       id="use3946"
       style="fill:#ffc0bb"
       x="384"
       y="256"
       width="64"
       height="64"
       xlink:href="#mine7" />
    <use
       id="use3948"
       style="fill:#ffb733"
       x="384"
       y="320"
       width="64"
       height="64"
       xlink:href="#mine7" />
    <use
       id="use3950"
       style="fill:#33ffff"
       x="384"
       y="384"
       width="64"
       height="64"
       xlink:href="#mine7" />
    <use
       id="use3952"
       style="fill:#00e600"
       x="384"
       y="448"
       width="64"
       height="64"
       xlink:href="#mine7" />
    <use
       id="use3831"
       style="fill:#6666ff"
       x="448"
       y="0"
       width="64"
       height="64"
       xlink:href="#mine8" />
    <use
       id="use3849"
       style="fill:#ff3333"
       x="448"
       y="64"
       width="64"
       height="64"
       xlink:href="#mine8" />
    <use
       id="use3954"
       style="fill:#b300b3"
       x="448"
       y="128"
       width="64"
       height="64"
       xlink:href="#mine8" />
    <use
       id="use3956"
       style="fill:#ffff33"
       x="448"
       y="192"
       width="64"
       height="64"
       xlink:href="#mine8" />
    <use
       id="use3958"
       style="fill:#ffc0bb"
       x="448"
       y="256"
       width="64"
       height="64"
       xlink:href="#mine8" />
    <use
       id="use3960"
       style="fill:#ffb733"
       x="448"
       y="320"
       width="64"
       height="64"
       xlink:href="#mine8" />
    <use
       id="use3962"
       style="fill:#33ffff"
       x="448"
       y="384"
       width="64"
       height="64"
       xlink:href="#mine8" />
    <use
       id="use3964"
       style="fill:#00e600"
       x="448"
       y="448"
       width="64"
       height="64"
       xlink:href="#mine8" />
  </g>
</svg>
