<?xml version="1.0" encoding="UTF-8" standalone="no"?>
<!-- Created with Inkscape (http://www.inkscape.org/) -->

<svg
   xmlns:dc="http://purl.org/dc/elements/1.1/"
   xmlns:cc="http://creativecommons.org/ns#"
   xmlns:rdf="http://www.w3.org/1999/02/22-rdf-syntax-ns#"
   xmlns:svg="http://www.w3.org/2000/svg"
   xmlns="http://www.w3.org/2000/svg"
   xmlns:xlink="http://www.w3.org/1999/xlink"
   version="1.1"
   width="64"
   height="64"
   id="svg3770">
  <defs
     id="defs3772">
    <g
       id="colorGray">
      <path
         d="m 2,10 v 44 l 8,8 h 44 l 8,-8 V 10 L 54,2 H 10 l -8,8 z"
         style="fill:#808080;stroke:#000000;stroke-width:2" />
    </g>
    <g
       id="arrow1">
      <path
         d="M 21,17 H 43 V 2 H 21 z"
         style="fill-opacity:0;stroke:#000000;stroke-width:2" />
      <path
         d="M 21,2 H 10 l -8,8 v 11 h 15 l 4,-4 V 2 z"
         style="fill-opacity:0;stroke:#000000;stroke-width:2" />
      <path
         d="M 2,21 V 43 H 17 V 21 z"
         style="fill-opacity:0;stroke:#000000;stroke-width:2" />
      <path
         d="m 2,43 v 11 l 8,8 H 21 V 47 l -4,-4 z"
         style="fill-opacity:0;stroke:#000000;stroke-width:2" />
      <path
         d="M 21,62 H 43 V 47 H 21 z"
         style="fill-opacity:0;stroke:#000000;stroke-width:2" />
      <path
         d="m 43,62 h 11 l 8,-8 V 43 H 47 l -4,4 z"
         style="fill-opacity:0;stroke:#000000;stroke-width:2" />
      <path
         d="M 62,21 H 47 v 22 h 15 z"
         style="fill-opacity:0;stroke:#000000;stroke-width:2" />
      <path
         d="M 62,10 V 21 H 47 L 43,17 V 2 h 11 l 8,8 z"
         style="fill-opacity:0;stroke:#000000;stroke-width:2" />
    </g>
  </defs>
  <metadata
     id="metadata3775">
    <rdf:RDF>
      <cc:Work
         rdf:about="">
        <dc:format>image/svg+xml</dc:format>
        <dc:type
           rdf:resource="http://purl.org/dc/dcmitype/StillImage" />
        <dc:title></dc:title>
      </cc:Work>
    </rdf:RDF>
  </metadata>
  <g
     id="layer1">
    <use
       x="0"
       y="0"
       width="64"
       height="64"
       xlink:href="#colorGray" />
    <use
       x="0"
       y="0"
       width="64"
       height="64"
       xlink:href="#arrow1" />
  </g>
</svg>
